<svg width="110" height="110" viewBox="0 0 110 110" fill="none" xmlns="http://www.w3.org/2000/svg">
<g clip-path="url(#clip0_366_1287)">
<path d="M6.4625 5.1792L0 11.6417L20.1208 31.7625L30.25 53.1209L24.0625 64.35C23.3292 65.6334 22.9167 67.1459 22.9167 68.75C22.9167 73.7917 27.0417 77.9167 32.0833 77.9167H66.275L72.6 84.2417C70.3083 85.8917 68.7958 88.5959 68.7958 91.6667C68.7958 96.7084 72.875 100.833 77.9167 100.833C80.9875 100.833 83.6917 99.3209 85.3417 96.9834L98.3583 110L104.821 103.538L6.4625 5.1792ZM32.0833 68.75L37.125 59.5834H47.9417L57.1083 68.75H32.0833ZM91.6667 18.3334H32.6333L41.8 27.5H83.9208L71.2708 50.4167H64.6708L73.5625 59.3084C76.0375 58.6667 78.1 57.0625 79.2917 54.8625L95.7 25.1167C97.3958 22.0917 95.15 18.3334 91.6667 18.3334ZM32.0833 82.5C27.0417 82.5 22.9625 86.625 22.9625 91.6667C22.9625 96.7084 27.0417 100.833 32.0833 100.833C37.125 100.833 41.25 96.7084 41.25 91.6667C41.25 86.625 37.125 82.5 32.0833 82.5Z" fill="#4A4E37" fill-opacity="0.56"/>
</g>
<defs>
<clipPath id="clip0_366_1287">
<rect width="110" height="110" fill="white"/>
</clipPath>
</defs>
</svg>
