<svg width="64" height="64" viewBox="0 0 64 64" fill="none" xmlns="http://www.w3.org/2000/svg">
<circle cx="32" cy="32" r="31.5" fill="#323232" stroke="#4A4E37"/>
<circle cx="32" cy="32" r="29" fill="#F6F2E6"/>
<g clip-path="url(#clip0_126_5857)">
<path d="M38.4375 39.25C39.375 39.25 40.2 38.7375 40.625 37.9625L45.1 29.85C45.5625 29.025 44.9625 28 44.0125 28H25.5125L24.3375 25.5H20.25V28H22.75L27.25 37.4875L25.5625 40.5375C24.65 42.2125 25.85 44.25 27.75 44.25H42.75V41.75H27.75L29.125 39.25H38.4375ZM26.7 30.5H41.8875L38.4375 36.75H29.6625L26.7 30.5ZM27.75 45.5C26.375 45.5 25.2625 46.625 25.2625 48C25.2625 49.375 26.375 50.5 27.75 50.5C29.125 50.5 30.25 49.375 30.25 48C30.25 46.625 29.125 45.5 27.75 45.5ZM40.25 45.5C38.875 45.5 37.7625 46.625 37.7625 48C37.7625 49.375 38.875 50.5 40.25 50.5C41.625 50.5 42.75 49.375 42.75 48C42.75 46.625 41.625 45.5 40.25 45.5Z" fill="black"/>
</g>
<defs>
<clipPath id="clip0_126_5857">
<rect width="30" height="30" fill="white" transform="translate(19 23)"/>
</clipPath>
</defs>
</svg>
