<svg width="203" height="64" viewBox="0 0 203 64" fill="none" xmlns="http://www.w3.org/2000/svg">
<g clip-path="url(#clip0_39_1048)">
<path d="M63.8894 4.69149C64.0634 4.17953 64.5729 4.26162 64.9032 4.19296C77.8774 1.49582 91.0167 -0.192318 104.415 0.0181395C118.233 0.234568 131.819 1.97495 145.216 4.7915C156.637 7.1931 167.76 10.3156 178.344 14.6949C184.201 17.1189 189.802 19.8877 194.729 23.5312C197.173 25.3402 199.359 27.3448 200.962 29.7509C204.172 34.569 203.579 39.3871 199.27 43.559C196.687 46.0591 193.497 47.901 190.065 49.4607C182.665 52.8251 174.705 54.9162 166.593 56.6253C152.383 59.6194 137.918 61.2971 123.355 62.4375C107.739 63.6599 92.0854 64.1764 76.4038 63.948C63.4349 63.7584 50.498 63.1166 37.6889 61.2971C28.8406 60.0403 20.1201 58.3641 12.0298 54.9282C9.16265 53.7102 6.49964 52.24 4.24672 50.2891C-0.475693 46.2009 -1.29413 41.2365 1.98316 36.2437C4.33194 32.6644 7.80451 29.9434 11.6606 27.5508C19.7597 22.5281 28.8512 19.1713 38.3245 16.492C52.9142 12.368 67.9425 10.1798 83.2833 9.40216C91.022 9.0096 98.759 9.0111 106.507 9.26484C114.426 9.52455 122.289 10.2365 130.131 11.1351C131.988 11.3485 133.829 11.6829 135.697 11.859C136.009 11.8888 136.37 11.8575 136.467 12.2486C135.921 12.5501 135.283 12.3978 134.676 12.3411C130.978 12.0008 127.291 11.553 123.585 11.3022C96.08 9.44097 68.9012 10.6037 42.4007 17.716C32.9612 20.2489 23.8838 23.4745 15.6569 28.2015C11.9748 30.3166 8.57501 32.7032 5.97058 35.7974C4.85389 37.1243 3.95734 38.5453 3.50996 40.1349C2.65069 43.1873 3.77093 45.7755 6.25996 47.9965C9.37569 50.7772 13.3312 52.4474 17.4748 53.8326C24.7662 56.27 32.3948 57.6163 40.1193 58.591C57.4236 60.7747 74.8469 61.1971 92.3074 60.9105C110.585 60.6105 128.784 59.4687 146.85 57.0611C157.981 55.5774 168.997 53.658 179.606 50.3697C184.721 48.7846 189.666 46.8994 193.985 44.0247C195.276 43.1649 196.453 42.2082 197.45 41.1051C200.101 38.1766 200.488 35.0526 198.551 31.745C197.184 29.4135 195.16 27.512 192.877 25.8029C187.21 21.5565 180.631 18.5354 173.78 15.9054C163.018 11.7739 151.783 8.83646 140.275 6.58859C129.222 4.43028 118.034 3.05858 106.711 2.47796C97.3866 2.00032 88.0998 2.469 78.8378 3.40486C73.9397 3.89892 69.0575 4.51089 64.1327 4.78851C64.0723 4.7915 64.0066 4.73776 63.8948 4.69149H63.8894Z" fill="#4A4E37"/>
</g>
<defs>
<clipPath id="clip0_39_1048">
<rect width="203" height="64" fill="white"/>
</clipPath>
</defs>
</svg>
