<svg width="60" height="48" viewBox="0 0 60 48" fill="none" xmlns="http://www.w3.org/2000/svg">
<path opacity="0.5" d="M59.1237 35.88C59.1237 29.778 55.5077 25.032 49.6317 25.032C48.7277 25.032 48.0497 25.032 47.1457 25.258C47.1457 16.896 51.6657 11.472 58.2197 8.08199L52.5697 0.171987C46.0157 2.658 33.1337 11.472 33.1337 31.134C33.1337 41.756 39.0097 47.18 47.1457 47.18C53.9257 47.18 59.1237 42.66 59.1237 35.88ZM26.1277 35.88C26.1277 29.778 22.5117 25.032 16.6357 25.032C15.7317 25.032 15.0537 25.032 14.1497 25.258C14.1497 16.896 18.6697 11.472 25.2237 8.08199L19.5737 0.171987C13.0197 2.658 0.137657 11.472 0.137657 31.134C0.137657 41.756 6.01366 47.18 14.1497 47.18C20.9297 47.18 26.1277 42.66 26.1277 35.88Z" fill="black"/>
</svg>
