<svg width="116" height="24" viewBox="0 0 116 24" fill="none" xmlns="http://www.w3.org/2000/svg">
<g clip-path="url(#clip0_103_1644)">
<path d="M12 17.27L18.18 21L16.54 13.97L22 9.24L14.81 8.63L12 2L9.19 8.63L2 9.24L7.46 13.97L5.82 21L12 17.27Z" fill="#4A4E37"/>
</g>
<g clip-path="url(#clip1_103_1644)">
<path d="M35 17.27L41.18 21L39.54 13.97L45 9.24L37.81 8.63L35 2L32.19 8.63L25 9.24L30.46 13.97L28.82 21L35 17.27Z" fill="#4A4E37"/>
</g>
<g clip-path="url(#clip2_103_1644)">
<path d="M58 17.27L64.18 21L62.54 13.97L68 9.24L60.81 8.63L58 2L55.19 8.63L48 9.24L53.46 13.97L51.82 21L58 17.27Z" fill="#4A4E37"/>
</g>
<g clip-path="url(#clip3_103_1644)">
<path d="M81 17.27L87.18 21L85.54 13.97L91 9.24L83.81 8.63L81 2L78.19 8.63L71 9.24L76.46 13.97L74.82 21L81 17.27Z" fill="#4A4E37"/>
</g>
<g clip-path="url(#clip4_103_1644)">
<path d="M104 17.27L110.18 21L108.54 13.97L114 9.24L106.81 8.63L104 2L101.19 8.63L94 9.24L99.46 13.97L97.82 21L104 17.27Z" fill="#4A4E37"/>
</g>
<defs>
<clipPath id="clip0_103_1644">
<rect width="24" height="24" fill="white"/>
</clipPath>
<clipPath id="clip1_103_1644">
<rect width="24" height="24" fill="white" transform="translate(23)"/>
</clipPath>
<clipPath id="clip2_103_1644">
<rect width="24" height="24" fill="white" transform="translate(46)"/>
</clipPath>
<clipPath id="clip3_103_1644">
<rect width="24" height="24" fill="white" transform="translate(69)"/>
</clipPath>
<clipPath id="clip4_103_1644">
<rect width="24" height="24" fill="white" transform="translate(92)"/>
</clipPath>
</defs>
</svg>
